<svg width="58" height="62" viewBox="0 0 58 62" fill="none" xmlns="http://www.w3.org/2000/svg">
    <path d="M21.1026 52.4395C6.74359 56.7197 6.74359 45.3057 1 43.879M41.2051 61V49.9569C41.3129 48.5963 41.1278 47.2284 40.6624 45.9443C40.197 44.6602 39.4617 43.4893 38.5056 42.5093C47.5231 41.5106 57 38.1149 57 22.5348C56.9993 18.5508 55.457 14.7196 52.6923 11.8342C54.0014 8.34862 53.9089 4.49595 52.4338 1.07645C52.4338 1.07645 49.0451 0.0777284 41.2051 5.29964C34.623 3.5271 27.6847 3.5271 21.1026 5.29964C13.2626 0.0777284 9.87385 1.07645 9.87385 1.07645C8.39882 4.49595 8.30626 8.34862 9.61538 11.8342C6.83011 14.741 5.28622 18.6068 5.30769 22.6204C5.30769 38.0864 14.7846 41.482 23.8021 42.5949C22.8572 43.565 22.1286 44.7219 21.6635 45.9904C21.1983 47.2588 21.0072 48.6103 21.1026 49.9569V61" stroke="#A8B2D1" stroke-width="2" stroke-linecap="round" stroke-linejoin="round"/>
</svg>