<svg width="59" height="57" viewBox="0 0 59 57" fill="none" xmlns="http://www.w3.org/2000/svg">
    <path d="M40.9 18.1C45.4352 18.1 49.7847 19.9016 52.9915 23.1085C56.1984 26.3153 58 30.6648 58 35.2V55.15H46.6V35.2C46.6 33.6882 45.9995 32.2384 44.9305 31.1695C43.8616 30.1005 42.4117 29.5 40.9 29.5C39.3883 29.5 37.9385 30.1005 36.8695 31.1695C35.8005 32.2384 35.2 33.6882 35.2 35.2V55.15H23.8V35.2C23.8 30.6648 25.6016 26.3153 28.8085 23.1085C32.0154 19.9016 36.3648 18.1 40.9 18.1Z" stroke="#A8B2D1" stroke-width="2" stroke-linecap="round" stroke-linejoin="round"/>
    <path d="M12.4 20.95H1V55.15H12.4V20.95Z" stroke="#A8B2D1" stroke-width="2" stroke-linecap="round" stroke-linejoin="round"/>
    <path d="M6.7 12.4C9.84802 12.4 12.4 9.84802 12.4 6.7C12.4 3.55198 9.84802 1 6.7 1C3.55198 1 1 3.55198 1 6.7C1 9.84802 3.55198 12.4 6.7 12.4Z" stroke="#A8B2D1" stroke-width="2" stroke-linecap="round" stroke-linejoin="round"/>
</svg>
